<?xml version="1.0" encoding="UTF-8"?>
<svg width="287px" height="276px" viewBox="0 0 287 276" version="1.1" xmlns="http://www.w3.org/2000/svg" xmlns:xlink="http://www.w3.org/1999/xlink">
    <!-- Generator: Sketch 44.1 (41455) - http://www.bohemiancoding.com/sketch -->
    <title>Shape</title>
    <desc>Created with Sketch.</desc>
    <defs></defs>
    <g id="Symbols" stroke="none" stroke-width="1" fill="none" fill-rule="evenodd">
        <g id="logo/SpotlightLogoRow" fill-rule="nonzero" fill="#FFFFFF">
            <g id="SpotlightLogoRow">
                <g id="Layer_1">
                    <path d="M180.7,71.4 C180.8,72.6 180.8,73.7 180.7,74.9 C180.3,81.9 177.2,87.1 172.9,91.4 C168.2,96 162,98.6 155.5,98.6 C148.9,98.8 142.5,96.3 137.7,91.8 C127.5,82.4 126.8,66.4 136.2,56.2 C136.6,55.8 137,55.4 137.4,55 C141.6,50.9 146.4,48.5 153.7,47.8 C160.6,47.3 167.4,49.7 172.5,54.4 C177.2,58.8 180.1,64.9 180.7,71.4 Z M281.3,158 L273.8,172.5 C271.6,176.8 270.1,181.4 269.4,186.1 L266.9,202.3 C264.8,216.4 255.9,228.6 243.1,235 L228.5,242.3 C224.2,244.5 220.3,247.3 216.9,250.7 L205.4,262.4 C195.4,272.6 181,277.2 166.9,274.9 L150.8,272.2 C146.1,271.4 141.2,271.4 136.5,272.2 L120.4,274.9 C106.3,277.2 92,272.6 81.9,262.4 L70.4,250.7 C67,247.3 63.1,244.4 58.8,242.3 L44.2,235 C31.4,228.6 22.6,216.4 20.4,202.3 L17.9,186.1 C17.2,181.3 15.7,176.7 13.5,172.5 L5.9,158 C-0.7,145.3 -0.7,130.2 5.9,117.6 L13.4,103.1 C15.6,98.8 17.1,94.2 17.8,89.5 L20.3,73.3 C22.4,59.2 31.3,47 44.1,40.6 L58.7,33.3 C63,31.1 66.9,28.3 70.3,24.9 L81.8,13.3 C91.8,3.1 106.2,-1.5 120.3,0.8 L136.4,3.5 C141.1,4.3 146,4.3 150.7,3.5 L166.8,0.8 C180.9,-1.5 195.2,3.1 205.3,13.3 L216.8,24.9 C220.2,28.3 224.1,31.2 228.4,33.3 L243,40.6 C255.8,47 264.6,59.2 266.8,73.3 L269.3,89.5 C270,94.3 271.5,98.9 273.7,103.1 L281.2,117.6 C287.8,130.2 287.8,145.3 281.3,158 Z M194.7,70.9 C194.5,65.5 193.1,60.3 190.6,55.5 C183.3,41.3 168.3,32.8 152.3,33.8 C150.7,34 149.3,34.1 147.9,34.3 C139.3,35.9 131.5,40.3 125.7,46.8 C118.5,54.7 114.9,65.2 115.7,75.8 C116.6,86.8 121.5,96.2 128.6,102.3 C133.8,106.8 140.4,110.8 148.7,112 C164.6,114.4 176.8,108.1 184.7,99.5 C191.8,91.8 195.4,81.4 194.7,70.9 Z M79,151.3 C81.9,149.7 84.7,148 87.5,146.4 C86.5,134.9 85.6,122.5 84.7,111.9 C96.4,107 104.7,97.5 108.4,84.1 C111.4,73.3 110.1,60.6 104.6,53.5 C102.8,51 100.3,49 97.5,47.7 C92.7,45.9 86.9,47.3 82.9,49 C80.7,50 78.6,51.2 76.7,52.6 C72.9,55.3 69.4,58.3 66.2,61.8 C69.6,91.4 73,122.5 76.3,152.8 C77.2,152.4 78.1,151.9 79,151.3 Z M80.5,66.3 C80.7,65.4 82.9,64.1 83.7,63.5 C85.2,62.4 86.9,61.8 88.8,61.6 C94.3,61.4 95.6,66.1 95.9,71.4 C96.1,74.2 96.1,77 95.9,79.8 C95.2,89.1 90.8,95.1 83.5,98.1 C82.9,92.3 82.5,85.3 81.8,78.6 C81.5,75.9 81.1,72.3 80.7,69.1 C80.6,68.2 80.5,67.3 80.5,66.3 L80.5,66.3 Z M67,140.9 C65.8,135.9 64.2,131.1 62,126.5 C59.8,121.8 58.4,116.9 57.6,111.8 C56.8,104.7 58.2,98.5 62.7,95.2 C61,89.7 59.6,84.3 57.9,78.9 C48.1,84.1 41.3,93.5 41.3,107.5 C41.3,116.1 44.5,121.7 47.6,127.9 C49.7,132 51.5,136.2 52.9,140.6 C54.3,145.3 55.6,150.5 55.2,155.4 C54.4,164.8 50.5,171.4 45.4,177 C44.9,177.6 43.2,179 43.2,179.4 C43.5,180.1 43.8,180.7 44.2,181.3 C46.2,185.5 48,189.1 50,193.2 C50.3,193.8 50.6,195 51,195.2 C51.4,195.4 52.2,194.4 52.7,193.8 C54.4,192 56,190.1 57.5,188.1 C65.8,176.6 70.8,158.7 67,140.9 Z M100,160.8 C104.1,149.2 108,137.2 111,125 C111.9,121.4 113,117.7 113.7,114 C113.8,113.6 114.1,112.7 113.7,112.5 C108.4,114.1 102.9,115.5 97.7,117.2 C95.5,135.3 90.1,151.4 84,166.5 C77.9,181.6 70.4,195.5 62.6,208.8 C72.2,219.2 84.4,227.1 97.8,233.7 C100.2,229.7 102.8,225.8 105.1,221.7 C96.9,216.7 88.4,211.9 81.4,205.7 C88.4,191 94.6,176 100,160.8 L100,160.8 Z M131.2,128.9 C127.8,126.6 123.6,124.9 119.9,122.9 C112.5,151.3 102.6,177.5 93.1,204.1 C96.4,205.9 99.6,207.9 103,209.7 C109.4,197.3 113.3,184 118.4,170.5 C120.9,163.9 123,157.1 125.1,150.2 C127.2,143.3 129.3,136.1 131.2,128.9 L131.2,128.9 Z M160,212 L160,200.2 C160,197.5 159.9,194.5 159.8,189.8 C152.7,190.7 145.5,191.3 138.5,192.3 C138.2,196.2 138.2,200.3 138,204.4 C141.1,204.6 146,204 149.1,204 C149.1,209.8 149.1,214.8 149.2,219.7 C149.2,221.6 149.5,223.5 149,225.1 C148.3,227.5 145.8,229 142.6,228.7 C138.9,228.3 136,224.5 134.4,221.4 C128.9,210.6 130.7,192.8 132.9,180.8 C134.3,172.7 137.2,164.9 141.6,157.9 C145.7,151.4 151.3,146 159.3,143.7 C159.3,140.4 159.1,135.9 158.9,132.2 C158.8,130.5 158.9,128.4 158.5,127.5 C158.4,127.4 158.2,127.6 158.1,127.6 C153.2,129.3 148.7,131.9 144.7,135.2 C138.8,139.8 133.9,145.5 130.2,152 C128.9,154.3 127.8,156.6 126.8,159 C122.5,168.6 120.5,179.7 119.3,192 C118.4,201.4 118.3,210 119.7,218.5 C120.2,221.2 121,223.9 122,226.5 C125.5,235.7 132.3,243.4 146.1,241.5 C151.4,240.8 155.7,238.7 160.2,236.8 C160.2,228 160,218.8 160,212 L160,212 Z M202.3,158.8 C201.6,152.2 201.2,145.4 201,138.7 C200.7,129.4 201,120.4 201.5,111.1 C201.5,111 201.5,111 201.4,111 C197.8,113.8 193.7,116.7 189.8,119.5 C189.2,119.9 188.7,120.3 188.3,120.9 C188.2,121.7 188.2,122.5 188.3,123.3 C188.2,136.7 189,150.9 189.3,162.9 C186,164.3 182.7,166.1 179.4,167.4 C178,153.5 177.2,141.1 176.3,126.9 C171.9,128.4 167.9,130.2 163.6,131.8 C164.5,138.4 165.4,144.7 166,150.8 C167.1,160.5 167.6,170.2 167.7,179.9 C167.7,182.7 167.7,185.5 167.5,188.3 C167.1,194.2 167.2,200.2 166.8,206.1 C165.9,217.5 166,229.7 166,240.5 C168.3,239.5 170.5,238.2 172.8,237.1 C175.1,236.1 177.3,234.9 179.5,233.6 C179.5,229.3 179.7,225.9 179.8,222.2 C180.2,208.1 180.6,196.3 180.1,183.8 C183.9,182 187.7,180.2 191.7,178.5 C194.4,194.6 199.8,208.7 204.7,223.1 C208.8,220 212.3,216.3 216.2,212.9 C213.4,205.6 211.1,197.8 208.9,190.1 C205.6,180 203.5,169.5 202.3,158.8 L202.3,158.8 Z M233,113.8 C235.3,112.9 237.4,111.5 239.6,110.4 C241.8,109.3 243.9,108.1 246,106.8 C242,95.3 237,84.8 230.1,75.8 C223.4,66.9 215.5,58.9 206.6,52.2 C206.6,52 206.3,52.2 206.3,52.3 C204.1,55 202.1,57.9 200.2,60.9 C199.8,61.6 198.4,63.4 198.5,64.1 C199.1,64.9 199.8,65.6 200.6,66.2 C201.4,67 202.2,67.6 202.8,68.2 C206.4,71.9 209.4,75.2 212.7,79.2 C213.2,79.8 214.4,81.1 214.4,81.7 C214.2,82.8 213.9,83.9 213.5,84.9 C211.9,90.6 210.8,96.2 209.8,102.2 C207.8,113.8 207.2,125.7 208,137.4 C208.9,149.9 211.3,161.2 214,172.2 C215.3,177.6 216.9,183 218.9,188.2 C220.4,192.1 221.9,196 223.6,199.5 C224.2,200.7 224.5,202.1 225.5,203 C228.9,198.6 232.5,194.4 235.8,190 C230.8,181.1 227.4,170.2 224.8,158.9 C223.8,155 223.1,150.9 222.7,146.9 C221.2,130.6 220.6,112.9 225,97.5 C228.5,102.6 231.2,108.1 233,113.8 L233,113.8 Z" id="Shape"></path>
                </g>
            </g>
        </g>
    </g>
</svg>